<?xml version="1.0" encoding="UTF-8"?>
<svg id="Layer_1" data-name="Layer 1" xmlns="http://www.w3.org/2000/svg" viewBox="0 0 301.64 136.19">
  <path d="M71.68,119.84c-.15,1.01.3,2.14.85,2.73s1.73,1,2.66.81c2.3-.47,4.4-1.07,6.63-1.86s3.8-2.69,4.19-5.1l5.72-35.27,3.33-.87-4.3,26.82c6-.9,8.17-3.99,8.51-9.75l3.44-1.07c-.14,3.87-1.42,7.34-4.44,9.92,4.63,2.25-.21,8.15,2.26,9.53,1.45.81,3.96-1.59,4.41-4.31l3.59-21.73-6.66,1.93.48-2.95,6.71-2.06,1.85-10.92,3.38-1.04-1.74,10.92,9.67-2.95-.44,2.98-9.8,2.98-3.7,22.01c-.13.77-.04,1.85.41,2.34,1.35,1.47,4.37-1.24,4.74-3.87s.66-5.15,1.49-7.67c2.41-7.29,8.36-11.85,16-13.5l-3.06,17.83c-.1.56.24,1.4.58,1.63,1.72,1.15,4.18-2.01,4.48-3.72l3.07-17.32,3.36-1.02-3.07,17.76c-.09.55.3,1.51.66,1.76s1.24.19,1.72-.09c1.93-1.1,2.67-3.08,3.04-5.21l2.93-16.81,3.18-17.67,3.41-1.07-4.16,23.15-2.21,13.1c-.11.67.22,1.72.77,2.02.98.52,2.32-.07,2.82-1.12l10.35-21.44c1.02-.51,2.1-.63,3.31-.57-1.89,5.32,1.63,7.84,2.07,11.99.57,5.38-4.18,10.26-9.4,11.71l-8.87,2.47c-1.42.39-2.81.03-3.77-1.22-1.7,2.74-6.02,5.7-8.54,2.82-1.28,1.81-2.89,3.14-4.96,3.58-1.54.33-2.9-.11-3.64-1.59-1.87,3.11-7.85,6.92-10.76,3.51-1.64,2.71-6.29,5.83-8.73,2.73-1.45,2.02-3.28,3.61-5.78,3.79-.77.06-1.81-.16-2.35-.67-2.2-2.05.47-7.14-.85-8.8-.32-.4-1.32-.67-1.86-.53l-4.41,1.17c-.4,2.34-.6,4.46-1.32,6.68-.95,2.92-2.86,5.61-5.73,6.86s-6.1,2.15-9.26,2.75c-1.74.33-3.39-.24-4.67-1.41-1.45,1.86-2.95,3.42-5.32,3.94l.34-2.71c1.73-.68,3.29-2.01,3.62-3.98l1.71-10.15c.86-5.11,5.13-8.99,10.28-9.4,1.56-.12,3.01.61,3.67,1.92.5,1,.58,2.23.33,3.4l-3.33.89c.07-1.29.24-2.27-.5-2.97-1.76-1.65-6.49,1.27-7.13,5.49l-1.28,8.48ZM158.2,98.31c2.22-1.82,3.28-4.66,2.5-7.32-.52-1.77-1.19-3.38-2.02-5.12l-7.29,14.93c2.63-.11,4.88-.91,6.81-2.49ZM119.66,110.62c2.78-1.03,4.7-3.32,5.22-6.21l2.28-12.77c-7.4,2.57-10.1,9.93-10.21,16.99.2.64.45,1.39.82,1.67.44.34,1.14.34,1.89.32Z"/>
  <path d="M18.43,45.58c-8.65,8.8-11.82,22.95-7.54,34.57,1.46,3.96,3.79,7.4,7.1,10.02,6.62,5.25,15.83,5.19,23.05,1.59l4.09-2.04c.07.36.14.94.14,1.35-3.01,3.03-6.75,5.4-11.05,6.25-8.88,1.77-17.79-.96-24.42-7.02S-.39,75.24.04,66.08c.51-10.99,6.4-20.82,15.97-26.29,5.32-3.04,11.09-4.82,17.27-5.36,4.92-.43,11.77-.45,15.97,2.27,2.17,1.4,3,3.91,2.27,6.46-1.1,3.83-5.03,6.51-8.98,6.1-.91-.1-1.62-.47-1.9-1.23,1.82-.85,3.18-2.15,3.71-4.07s-.12-3.85-1.81-4.98c-1.47-.98-3.16-1.37-5.04-1.39-7.19-.06-14.02,2.85-19.06,7.99Z"/>
  <path d="M233.57,81.63c-.3,1.74.91,3.18,2.48,3.34,4.06.39,7.54-2.2,8.55-6.11l3.38-.41c-.86,6.21-7.87,10.02-13.72,9.08-2.58-.41-4.21-2.54-3.96-5.08.22-2.18.65-4.26,1.05-6.45.61-3.34-2.15-4.81-4.92-5.63l-2.02,10.95c-.76,4.14-3.86,8.28-8.43,8.37-1.52.03-2.63-.85-3.26-2.25-1.96,2.73-4.85,4.06-8.11,3.87-1.19-.07-2.13-.81-2.95-1.77-1.3,1.77-3.03,2.94-5.16,3.44l-7.53,1.76c-1.58.37-2.89.92-4.6.87-2.04-.06-3.94-1.8-3.52-4.17l6.32-35.97,3.37-.75-3.43,19.66c2.71-2.17,8.17-3.9,10.2-.09.37,1.16.56,2.42.37,3.65l-1.12,7.02c-.35,2.17-1.05,3.92-2.19,5.92l2.17-.39c2.39-.43,4.22-2.29,4.58-4.72.28-1.92.52-3.72,1.06-5.61,1.41-4.94,5-9.12,9.86-10.91,2.18-.8,4.25-1.12,6.69-1.51l-2.93,16.73c-.12.69.08,1.8.57,2.16,1.94,1.42,4.43-1.71,4.89-4.24l2.9-15.75,3.19-.74c.84,2.6,2.55,2.52,5,4.14,1.89,1.25,2.66,3.31,2.28,5.48l-1.06,6.13ZM207.91,88.44c2.26-.73,4.2-2.6,4.66-5.03l2.34-12.45c-7.49,1.74-10.18,8.1-10.39,15.23.19.82.48,1.65,1.11,2.03.57.35,1.32.33,2.29.22ZM192.68,87.31c.76-3.24,1.25-6.43,1.71-9.77.11-.79-.42-1.81-.86-2.21-2.05-1.87-6.6,1.21-7.2,3.84-.84,3.69-1.39,7.25-2.01,11-.1.6.15,1.54.49,1.92,1.33,1.49,6.71.18,7.87-4.78Z"/>
  <path d="M287.43,85.1c-8.09,1.07-16.11.21-23.66-2.48-2.03-.72-9.26-3.86-9.1-6.19l.76-10.82,1.47-21.15c.08-1.2.57-2.05,1.76-2.45,1.89-.64,3.89-.98,6-1.08,10.28-.49,23.13,1.05,32.8,4.66,1.46.54,4.49,2.01,4.16,4.01l-5.12,31.52c-.39,2.42-6.83,3.69-9.07,3.98ZM300.35,49.13c-1.89-2.86-12.13-4.86-15.43-5.44-7.18-1.27-14.32-1.88-21.58-1.29-1.84.15-3.4.47-5.1,1.36.49,1.93,9.1,4.13,10.83,4.52,5.82,1.28,11.59,2.04,17.57,2.4,3.03.18,11.34.36,13.71-1.54ZM279.89,58.29l11.22-.56c.54-.03.98.45,1.05.93l1,6.69c1.74-.43,3.23-.97,4.8-1.85l1.99-12.46c-2.5.68-4.89,1.03-7.5,1.06-9.37.11-18.63-1.03-27.64-3.56-2.4-.67-4.47-1.56-6.59-2.68l-.85,11.93,4.09.15c1.24-2.98,3.48-5.28,6.91-6.01l2.61,9.01,8.91,4.27-.8-5.38-3.41,1.05c-.18-.23-.31-.88-.22-1.23,1.41-.33,2.88-1.31,4.42-1.38ZM271.19,68.66c-3.93.3-7.14-2.32-7.9-5.89s1.28-7.13,4.56-8.38c.21-.08.06-.97-.09-1.08-3.28,1.12-5.47,4.07-5.69,7.35s1.54,6.55,4.65,8.16c1.73.89,3.7,1.22,5.55.69,0-.24-.04-.58-.09-.76s-.65-.11-.99-.08ZM269.75,60.28l-1.44-5.02c-1.35.6-2.15,1.24-3.07,2.45l4.51,2.57ZM269.31,61.15l-4.51-2.59c-.6,1.28-.77,2.53-.48,3.92l4.99-1.33ZM259.97,70.58c2.11-.34,4.07-.56,6.31-.69-3.93-2.03-6.02-6.14-5.17-10.53-1.31-.23-2.53-.27-3.81-.08l-.94,12.68c1.27-.6,2.37-1.01,3.61-1.39ZM291.83,65.63l-.99-6.6-10.46.46.94,6.17c3.57.81,6.86.65,10.51-.02ZM267.01,66.59l2.53-4.49-5.01,1.3c.54,1.48,1.13,2.38,2.48,3.19ZM271.84,67.49l-1.47-4.98-2.52,4.48c1.2.66,2.53.91,3.99.5ZM276.28,70.46l-1.23-5.97-3.58-1.74,2.09,7.41,2.72.3ZM280.45,68.26l-.4-1.62-3.5-1.28.68,3.63,3.21-.73ZM276.84,70.5c5.44.85,15.03,2.71,18.89,6.5l1.9-11.73c-5.28,2.15-10.75,2.72-16.12,1.86.12.96.18,1.58.02,2.15l-4.7,1.22ZM294.47,78.93c2.34-1.18-5-4.03-5.82-4.3-7.83-2.55-15.95-3.65-24.19-3.26-1.87.09-6.66.72-7.92,2.38,3.77,4,12.12,6.21,17.35,6.98,6.24.92,14.93,1.04,20.58-1.8Z"/>
  <path d="M20.18,85.68c-.77-1.21,2.31-.78,2.71-3.73l2.38-17.53.95-7.29c.33-2.58-2.29-2.91-2.1-3.74.04-.19.43-.33.72-.32,3.89.19,7.68.25,11.58.24.24.37-.14,1.04-.58,1.16-1.36.59-1.91,1.85-2.21,3.23l-1.36,10.71c4.01,1.23,7.81,2.15,11.99,2.73l1.89-13.81c-.09-1.27-.15-2.59-1.41-3.07l-.62-.44c-.15-.11.12-.79.32-.8l11.87-.98c.24-.02.45.61.31.72-.75.57-2.57,1.31-2.88,3.49l-1.08,7.56-2.19,17.62c-.25,2.01,1.86,2.64,2.07,2.88.13.15-.19.74-.47.76l-11.91.95c-.27-.54.14-1.01.7-1.15.91-.57,1.73-1.6,1.89-2.77l1.1-7.74c-4.22-.62-8.1-1.55-12.09-2.66l-1.31,9.83c-.18,1.37.14,2.77,1.29,3.51l.51.3c.15.09.06.57-.04.86l-12.05-.52Z"/>
  <path d="M88.62,73.5c-.31-2.15-.57-7.13-2.9-7.5-1.15-.18-2.27.19-3.38.68l-1.16,9.5c-.14,1.16.46,2.15,1.38,2.53l.58.24c.13.05-.12.68-.37.74l-11.79,2.52c-.96-1.17,2.13-1.06,2.59-4.48l3.36-24.8c.2-1.47-.54-2.7-2-2.78l.12-.9,17.74-3.95c2.17-.48,4.25-.69,6.28.02,2.33.82,3.65,2.86,3.5,5.36-.34,5.72-6.23,11.03-11.28,13.38.37,1.2.77,2.41,1.37,3.48,1.1,1.97,3.36,2.6,5.33,1.62,1.28-.64,2.2-1.68,3.07-2.88.49-.68,2.22,1.39.5,4.71s-5.13,5.57-8.88,5.89c-2.21.19-3.74-1.23-4.04-3.36ZM95.35,53.35c.14-1.22.02-2.45-.71-3.29-2.24-2.54-6.96-.58-10.15.07l-1.71,13.37c5.9-.55,11.49-4.24,12.57-10.16Z"/>
  <path d="M168.93,42.4c-.4-1.46.15-2.86.94-4.12,2.17-3.48,6.17-5.3,10.32-4.91,1.96.19,3.87.05,5.59-.87l3.4-1.81c1.03,2.07-2.81,1.77-3.6,6.93l-1.67,10.89c-1.29.5-2.24-2.23-4.82-.05-3.92,3.32-8.58,5.62-13.75,5.84-4.42.19-8.05-2.63-8.75-6.94-.42-2.61-.22-5.16.6-7.75,2.57-8.17,8.32-15,16.01-18.81,2.49-1.23,5.13-2.02,7.85-1.81,4.4.34,3.43-1.73,5.57-2.06l-.27,9.92c-.37.19-.98.39-1.45.5-.74-1.62-1.48-3.03-2.88-4.07-3.42-2.53-8.12-.04-10.76,2.7-3.95,4.08-6.51,9.4-7.1,15.07-.23,2.28.02,4.44.95,6.39s2.88,3,5.07,2.67c7.94-1.18,12.04-10.48,9.68-13-.44-.47-1.34-.77-2.07-.67-4.9.67-2.9,6.35-8.85,5.96Z"/>
  <path d="M119.27,69.46c-.29.1-.16-.84.06-.99,1.47-1,2.4-2.49,2.67-4.29l2.98-19.59.76-5.02c.31-2.02-2.12-2.19-2.31-2.57-.07-.13.19-.59.37-.65l10-3.16c.3,2.02.86,3.73,2.58,4.84,3.76,2.43,7.47,3.69,11.75,6.26l1.88-12.48c.4-2.63-2.39-1.97-2.09-2.82.06-.16.32-.47.49-.53l8.15-2.59c.63,1.57-2.35.98-3.06,5.68l-3.61,24.18c-.09.57.18,1.37.47,1.74.27.35.94.49,1.57.6l-.03.8-8.4,2.67c-1.1-1.42,3.99-1.81,1.96-7.54-.79-1.66-2.1-2.98-3.77-3.99-4.17-2.53-8.6-4.46-13.22-6.23l-2.91,19.7c-.19,1.29.65,2.47,1.97,2.32l.13.72c.04.2-.51.36-.72.43l-7.66,2.5Z"/>
  <path d="M289.16,32.65c-7.91,1.65-15.26-3.52-16.74-11.37-.98-5.19.42-10.69,3.7-14.85,2.95-3.73,7.35-5.77,12.08-5.26,3.81.42,7.05,2.49,9.29,5.6,3.71,5.17,4.4,12.08,1.77,17.88-1.92,4.22-5.5,7.04-10.11,8ZM288.16,29.32c1.68-1.23,2.8-2.97,3.56-4.91,1.8-4.54,2.28-9.53,1.33-14.32-.36-1.82-1.06-3.53-2.23-4.86-1.58-1.81-4.12-1.99-5.96-.51-5.75,4.64-7.11,17.75-3.1,23.52,1.5,2.15,4.14,2.74,6.4,1.09Z"/>
  <path d="M193.33,14.05l11.47-3.3c.66,1.21-2.15,1.58-2.54,4.49l-2.78,20.72c-.15,1.09.3,2.3.87,3.05,1.86,2.42,7.37.42,9.65-1.22,2.1-1.52,3.87-3.76,4.24-6.42l2.72-19.54c.36-2.55-1.73-2.63-1.99-3.05-.13-.2.25-.78.51-.84l7.57-1.85c.84,1.35-2.08,1.15-2.59,4.88l-2.42,17.92c-.49,3.64-1.67,6.75-4.39,9.27s-5.95,4.17-9.55,5.1c-2.49.65-4.91,1.11-7.49.76-2.81-.38-4.94-2.64-4.55-5.63l2.15-16.34c.22-1.7.49-3.25.6-4.94.12-1.86-1.77-1.78-2.02-2.37-.08-.2.27-.63.5-.7Z"/>
  <path d="M256.05,28.7c-.36,2.91,1.99,2.84,1.97,3.63,0,.21-.44.44-.73.47l-11.37,1.21c-.41-1.28,2.24-1.07,2.69-4.54l3.26-25.38c-8.67.3-11.01,6.35-12.4,7.37-.23.17-.9.02-1.25-.17l3.85-8.96c9.19-1.41,18.35-2.26,27.57-2.33l1.83,8.73c-1.9,1.02-1.67-1.04-4.04-3.47-2.2-2.26-5.33-2.16-8.22-1.85l-3.16,25.29Z"/>
  <path d="M43.37,111.33c2.84.26,3.83,3.02,3.42,5.54l-3.5.73c.17-1.31.34-2.45-.65-3.24-1.74-1.4-6.17.7-6.89,5.17l-1.21,7.51c-.16,1.02-.07,2.18.29,3.14.41,1.09,1.69,1.75,2.9,1.62,2.3-.25,4.57-.69,6.77-1.25,2.49-.63,3.95-2.62,4.33-5.05l1.36-8.62c.82-5.18,5.12-9.11,10.3-9.48,1.36-.1,2.65.25,3.52,1.09s1.53,2.33,1.32,3.71l-1.35,8.9c-.46,3.03-1.81,5.66-4.1,7.69s-7.9,4.15-10.42,1.03c-1.35,1.69-2.93,2.83-4.99,3.35-2.58.66-5.18,1.23-7.83,1.46-1.85.16-3.55-.43-4.69-1.89-1.39,1.75-2.88,3-5.17,3.47l.33-2.71c2.05-.57,3.48-2.26,3.83-4.38l1.54-9.3c.86-5.23,5.41-8.98,10.88-8.47ZM60.3,123.17c.71-3.45,1.23-6.8,1.66-10.33.1-.84-.49-1.92-1-2.28-2.18-1.52-6.73,1.41-7.36,5.43l-1.54,9.71c-.13.81.39,1.96.91,2.36,1.76,1.35,6.38-.34,7.32-4.89Z"/>
  <path d="M55.76,84.64c-.33.05-.13-.86.11-.98,1.45-.73,2.24-1.98,2.46-3.62l3.27-24.45c.16-1.17-.37-2.34-1.27-2.8l-.68-.35c-.17-.09-.02-.75.22-.79l12.02-1.86c1.23,1.33-2.22.77-2.79,4.94l-3.24,24.07c-.38,2.83,2,2.75,2.05,3.48.01.19-.37.52-.58.56l-11.57,1.79Z"/>
  <path d="M104.13,74c-1.16-1.19,2-.92,2.62-5.06l2.04-13.49,1.58-11.21c.19-1.32-.84-2.34-1.91-2.46-.13-.14-.25-.53-.13-.64s.5-.31.68-.37l11.68-3.44c1.15.87-2.17,1.51-2.62,4.6l-3.68,24.87c-.16,1.09.38,2.24,1.22,2.54l.79.28c.17.06-.09.74-.37.82l-11.89,3.54Z"/>
  <path d="M232.5,36.38l-11.48,2.31c-.4-1.43,2.24-1.08,2.76-4.91l3.35-24.37c.17-1.23-.33-2.3-1.25-2.75l-.6-.3c-.17-.09.07-.79.35-.85l11.4-2.34c1.15,1.49-1.98.82-2.55,4.91l-1.18,8.41-2.1,16.16c-.29,2.22,1.69,2.63,1.94,3.03.12.19-.35.65-.65.71Z"/>
  <polygon points="140.79 80.27 136.5 81.58 137.06 78.11 141.3 76.79 140.79 80.27"/>
  <path d="M296.42,63.11c-.35.06-.94-.06-1.4-.23l1.54-9.56c.4-.06,1,.05,1.4.24l-1.53,9.54Z"/>
  <path d="M294.98,72.49c-.31.23-1.14.16-1.45-.03l.81-4.85c.37-.09,1.02-.01,1.4.17l-.76,4.72Z"/>
</svg>